<svg xmlns="http://www.w3.org/2000/svg" version="1.1" xmlns:xlink="http://www.w3.org/1999/xlink" xmlns:svgjs="http://svgjs.dev/svgjs" width="1000" height="567" viewBox="0 0 1000 567"><g transform="matrix(1,0,0,1,0.08275862068967399,0.22955465587045865)"><svg viewBox="0 0 435 247" data-background-color="#ffffff" preserveAspectRatio="xMidYMid meet" height="567" width="1000" xmlns="http://www.w3.org/2000/svg" xmlns:xlink="http://www.w3.org/1999/xlink"><defs></defs><g id="tight-bounds" transform="matrix(1,0,0,1,19.74000000000001,-0.09999999999999432)"><svg viewBox="0 0 395.52 247.2" height="247.2" width="395.52"><g><svg></svg></g><g><svg viewBox="0 0 395.52 247.2" height="247.2" width="395.52"><g transform="matrix(3.295698924731183, 0, 0, 3.295698924731183, 49.18058607896586, 1)"><svg xmlns="http://www.w3.org/2000/svg" xmlns:xlink="http://www.w3.org/1999/xlink" version="1.1" x="0" y="0" viewBox="4.9171762001429835 12.799999999999997 90.16564759971402 74.39999999999999" enable-background="new 0 0 100 100" xml:space="preserve" height="74.39999999999999" width="90.16564759971402" class="icon-none" data-fill-palette-color="accent" id="none"><path fill="#8dbdff" d="M48.5 59.9c-1.4-2.4-1.2-6.6-1.1-8 0-0.3 0-0.7 0-1C46.3 31.6 26.5 32.5 24 32.7c-0.2 0-0.3 0-0.3 0-8.1 0.2-17.2 5.8-18.6 16-1.4 10.2 5.7 19.4 5.7 19.4 3 6.6 1.3 13.1-0.1 16.6-0.5 1.2 0.4 2.5 1.7 2.5H30c1.1 0 1.9-0.9 1.9-1.9 0-0.6 0-1 0-1 0.5-3.9 4.8-3.9 9.8-3.1 5 0.8 6.3-0.8 6.9-1.5 0.6-0.8-0.1-3.9-0.1-3.9s0.8-1 1.2-1.9c0.4-0.9-0.5-1.7-0.5-1.7l0.7-1.3c0.2-0.3 0.2-0.7-0.1-1-0.6-0.7-1-2-1-2s2.6-2 3-2.8C52.4 64.2 50 62.4 48.5 59.9zM36.5 58.6c0 0 1.2-1.8 3.3-1.8 3 0 3.6 1.8 3.6 1.8C40.4 61.5 36.5 58.6 36.5 58.6z" data-fill-palette-color="accent"></path><path fill="#8dbdff" d="M51.5 40.1c1.4 2.4 1.2 6.6 1.1 8 0 0.3 0 0.7 0 1C53.7 68.4 73.5 67.5 76 67.3c0.2 0 0.3 0 0.3 0 8.1-0.2 17.2-5.8 18.6-16 1.4-10.2-5.7-19.4-5.7-19.4-3-6.6-1.3-13.1 0.1-16.6 0.5-1.2-0.4-2.5-1.7-2.5H70c-1.1 0-1.9 0.9-1.9 1.9 0 0.6 0 1 0 1-0.5 3.9-4.8 3.9-9.8 3.1-5-0.8-6.3 0.8-6.9 1.5s0.1 3.9 0.1 3.9-0.8 1-1.2 1.9c-0.4 0.9 0.5 1.7 0.5 1.7L50 29.2c-0.2 0.3-0.2 0.7 0.1 1 0.6 0.7 1 2 1 2s-2.6 2-3 2.8C47.6 35.8 50 37.6 51.5 40.1zM63.5 41.4c0 0-1.2 1.8-3.3 1.8-3 0-3.6-1.8-3.6-1.8C59.6 38.5 63.5 41.4 63.5 41.4z" data-fill-palette-color="accent"></path></svg><g></g></g><rect width="435.072" height="52.27221783712094" fill="#ffffff" y="97.46389108143953" x="-19.77600000000001" data-fill-palette-color="quaternary"></rect><g transform="matrix(1,0,0,1,0,105.8463244837758)"><svg viewBox="0 0 395.52 35.507351032448376" height="35.507351032448376" width="395.52"><g><svg viewBox="0 0 395.52 35.507351032448376" height="35.507351032448376" width="395.52"><g><svg viewBox="0 0 395.52 35.507351032448376" height="35.507351032448376" width="395.52"><g><svg viewBox="0 0 395.52 35.507351032448376" height="35.507351032448376" width="395.52"><g><svg viewBox="0 0 395.52 35.507351032448376" height="35.507351032448376" width="395.52"><g><svg viewBox="0 0 395.52 35.507351032448376" height="35.507351032448376" width="395.52"><g transform="matrix(1,0,0,1,0,0)"><svg width="395.52" viewBox="0 -29.5 508.45 45.65" height="35.507351032448376" data-palette-color="#8dbdff"><path d="M4.5 0L0 0 0-29.5 4.5-29.5 4.5 0ZM10.5 0L6 0 6-29.5 10.5-29.5 10.5 0ZM13.5 0L12 0 12-29.5 13.5-29.5 13.5 0ZM21 0L19.5 0 19.5-29.5 21-29.5 21 0ZM24 0L22.5 0 22.5-29.5 24-29.5 24 0ZM13.4 16.15L13.4 16.15Q12.1 16.15 11.1 15.5L11.1 15.5Q10.05 14.85 9.45 13.55L9.45 13.55Q8.85 12.2 8.85 10.2L8.85 10.2Q8.85 8.1 9.5 6.75L9.5 6.75Q10.15 5.45 11.15 4.85L11.15 4.85Q12.15 4.3 13.3 4.3L13.3 4.3Q14.55 4.3 15.45 4.9L15.45 4.9Q16.35 5.5 16.8 6.55L16.8 6.55 15.7 7.1 15.55 7.15 15.5 7.05 15.5 6.9Q15.5 6.7 15.25 6.35L15.25 6.35Q14.85 5.8 14.35 5.55L14.35 5.55Q13.85 5.3 13.3 5.3L13.3 5.3Q11.8 5.3 10.95 6.6L10.95 6.6Q10.15 7.85 10.15 10.15L10.15 10.15Q10.15 11.55 10.55 12.7L10.55 12.7Q11 13.8 11.7 14.4L11.7 14.4Q12.45 15 13.35 15L13.35 15Q14.05 15 14.65 14.65L14.65 14.65Q15.3 14.25 15.7 13.6L15.7 13.6 16.65 14.25Q16.05 15.2 15.3 15.65L15.3 15.65Q14.5 16.15 13.4 16.15ZM30 0L25.5 0 25.5-29.5 30-29.5 30 0ZM33 0L31.5 0 31.5-29.5 33-29.5 33 0ZM36 0L34.5 0 34.5-29.5 36-29.5 36 0ZM46.5 0L42 0 42-29.5 46.5-29.5 46.5 0ZM49.5 0L48 0 48-29.5 49.5-29.5 49.5 0ZM34.55 15.95L34.55 4.35 36.05 4.35 36.05 4.5Q35.95 4.6 35.9 4.75L35.9 4.75Q35.9 4.85 35.9 5.2L35.9 5.2 35.9 9.3 40.4 9.3 40.4 4.35 41.95 4.35 41.95 4.5Q41.85 4.6 41.8 4.75L41.8 4.75Q41.8 4.85 41.8 5.2L41.8 5.2 41.8 15.95 40.4 15.95 40.4 10.45 35.9 10.45 35.9 15.95 34.55 15.95ZM55.5 0L51 0 51-29.5 55.5-29.5 55.5 0ZM58.5 0L57 0 57-29.5 58.5-29.5 58.5 0ZM61.5 0L60 0 60-29.5 61.5-29.5 61.5 0ZM67.5 0L63 0 63-29.5 67.5-29.5 67.5 0ZM75 0L73.5 0 73.5-29.5 75-29.5 75 0ZM60.15 15.95L60.15 4.35 63.55 4.35Q65.55 4.35 66.45 5.25L66.45 5.25Q67.4 6.1 67.4 7.7L67.4 7.7Q67.4 8.7 66.75 9.6L66.75 9.6Q66.09 10.5 65.05 10.8L65.05 10.8 67.75 15.95 66.3 15.95 63.7 10.85 61.45 10.85 61.45 15.95 60.15 15.95ZM61.45 9.7L63.7 9.7Q64.9 9.7 65.5 9.15L65.5 9.15Q66.05 8.65 66.05 7.7L66.05 7.7Q66.05 6.75 65.5 6.15L65.5 6.15Q64.9 5.6 63.7 5.6L63.7 5.6 61.45 5.6 61.45 9.7ZM77.99 0L76.49 0 76.49-29.5 77.99-29.5 77.99 0ZM83.99 0L79.49 0 79.49-29.5 83.99-29.5 83.99 0ZM86.99 0L85.49 0 85.49-29.5 86.99-29.5 86.99 0ZM97.49 0L92.99 0 92.99-29.5 97.49-29.5 97.49 0ZM100.49 0L98.99 0 98.99-29.5 100.49-29.5 100.49 0ZM86.09 15.95L86.09 14.85 88.39 14.85 88.39 5.45 86.24 5.45 86.24 4.35 91.99 4.35 91.99 5.45 89.69 5.45 89.69 14.85 92.09 14.85 92.09 15.95 86.09 15.95ZM103.49 0L101.99 0 101.99-29.5 103.49-29.5 103.49 0ZM109.49 0L104.99 0 104.99-29.5 109.49-29.5 109.49 0ZM112.49 0L110.99 0 110.99-29.5 112.49-29.5 112.49 0ZM118.49 0L113.99 0 113.99-29.5 118.49-29.5 118.49 0ZM125.99 0L124.49 0 124.49-29.5 125.99-29.5 125.99 0ZM114.69 16.15L114.69 16.15Q112.44 16.15 111.04 14.65L111.04 14.65 111.74 13.5 111.79 13.35 111.94 13.4Q111.94 13.45 111.99 13.6L111.99 13.6Q111.99 13.7 112.09 13.85L112.09 13.85Q112.14 13.95 112.29 14.05L112.29 14.05Q113.34 14.95 114.89 14.95L114.89 14.95Q115.89 14.95 116.59 14.4L116.59 14.4Q117.29 13.8 117.29 13L117.29 13Q117.29 12.45 117.04 12.05L117.04 12.05Q116.84 11.7 116.29 11.35L116.29 11.35Q115.74 11 114.59 10.5L114.59 10.5Q112.89 9.85 112.14 9L112.14 9Q111.44 8.15 111.44 7.1L111.44 7.1Q111.44 5.8 112.39 5L112.39 5Q113.34 4.2 114.94 4.2L114.94 4.2Q115.89 4.2 116.74 4.6L116.74 4.6Q117.54 5 118.19 5.65L118.19 5.65 117.34 6.8 117.24 6.7Q117.24 6.65 117.19 6.55L117.19 6.55Q117.19 6.4 117.09 6.3L117.09 6.3Q117.04 6.15 116.89 6.05L116.89 6.05Q116.49 5.65 115.94 5.45L115.94 5.45Q115.44 5.3 114.74 5.3L114.74 5.3Q113.84 5.3 113.34 5.8L113.34 5.8Q112.79 6.3 112.79 7L112.79 7Q112.79 7.55 112.99 7.95L112.99 7.95Q113.24 8.35 113.84 8.7L113.84 8.7Q114.44 9.1 115.64 9.55L115.64 9.55Q117.29 10.25 117.94 10.95L117.94 10.95Q118.54 11.7 118.54 12.8L118.54 12.8Q118.54 13.65 118.14 14.4L118.14 14.4Q117.69 15.15 116.84 15.65L116.84 15.65Q115.94 16.15 114.69 16.15ZM128.99 0L127.49 0 127.49-29.5 128.99-29.5 128.99 0ZM131.99 0L130.49 0 130.49-29.5 131.99-29.5 131.99 0ZM137.99 0L133.49 0 133.49-29.5 137.99-29.5 137.99 0ZM143.99 0L139.49 0 139.49-29.5 143.99-29.5 143.99 0ZM151.49 0L149.99 0 149.99-29.5 151.49-29.5 151.49 0ZM139.44 15.95L139.44 5.5 136.19 5.5 136.19 4.35 144.19 4.35 144.19 5.5 140.79 5.5 140.79 15.95 139.44 15.95ZM157.49 0L152.99 0 152.99-29.5 157.49-29.5 157.49 0ZM160.49 0L158.99 0 158.99-29.5 160.49-29.5 160.49 0ZM166.49 0L161.99 0 161.99-29.5 166.49-29.5 166.49 0ZM169.49 0L167.99 0 167.99-29.5 169.49-29.5 169.49 0ZM176.99 0L175.49 0 175.49-29.5 176.99-29.5 176.99 0ZM165.74 16.15L165.74 16.15Q163.74 16.15 162.69 14.6L162.69 14.6Q161.59 13.05 161.59 10.2L161.59 10.2Q161.59 7.45 162.69 5.85L162.69 5.85Q163.79 4.3 165.74 4.3L165.74 4.3Q167.69 4.3 168.79 5.85L168.79 5.85Q169.89 7.45 169.89 10.2L169.89 10.2Q169.89 13.05 168.79 14.6L168.79 14.6Q167.74 16.15 165.74 16.15ZM165.74 15L165.74 15Q167.09 15 167.79 13.8L167.79 13.8Q168.54 12.55 168.54 10.2L168.54 10.2Q168.54 8 167.79 6.7L167.79 6.7Q167.04 5.45 165.74 5.45L165.74 5.45Q164.44 5.45 163.69 6.7L163.69 6.7Q162.94 8 162.94 10.2L162.94 10.2Q162.94 12.55 163.64 13.8L163.64 13.8Q164.39 15 165.74 15ZM179.98 0L178.48 0 178.48-29.5 179.98-29.5 179.98 0ZM185.98 0L181.48 0 181.48-29.5 185.98-29.5 185.98 0ZM191.98 0L187.48 0 187.48-29.5 191.98-29.5 191.98 0ZM194.98 0L193.48 0 193.48-29.5 194.98-29.5 194.98 0ZM202.48 0L200.98 0 200.98-29.5 202.48-29.5 202.48 0ZM187.68 15.95L187.68 4.35 191.38 4.35Q193.23 4.35 194.13 5.3L194.13 5.3Q195.08 6.2 195.08 7.65L195.08 7.65Q195.08 9.05 194.18 9.95L194.18 9.95Q193.28 10.85 191.48 10.85L191.48 10.85 189.03 10.85 189.03 15.95 187.68 15.95ZM189.03 9.7L191.33 9.7Q192.58 9.7 193.13 9.15L193.13 9.15Q193.73 8.65 193.73 7.7L193.73 7.7Q193.73 6.75 193.13 6.2L193.13 6.2Q192.53 5.6 191.38 5.6L191.38 5.6 189.03 5.6 189.03 9.7ZM208.48 0L203.98 0 203.98-29.5 208.48-29.5 208.48 0ZM211.48 0L209.98 0 209.98-29.5 211.48-29.5 211.48 0ZM214.48 0L212.98 0 212.98-29.5 214.48-29.5 214.48 0ZM224.98 0L220.48 0 220.48-29.5 224.98-29.5 224.98 0ZM227.98 0L226.48 0 226.48-29.5 227.98-29.5 227.98 0ZM213.03 15.95L213.03 4.35 214.53 4.35 214.53 4.5Q214.43 4.6 214.38 4.75L214.38 4.75Q214.38 4.85 214.38 5.2L214.38 5.2 214.38 9.3 218.88 9.3 218.88 4.35 220.43 4.35 220.43 4.5Q220.33 4.6 220.28 4.75L220.28 4.75Q220.28 4.85 220.28 5.2L220.28 5.2 220.28 15.95 218.88 15.95 218.88 10.45 214.38 10.45 214.38 15.95 213.03 15.95ZM233.98 0L229.48 0 229.48-29.5 233.98-29.5 233.98 0ZM236.98 0L235.48 0 235.48-29.5 236.98-29.5 236.98 0ZM242.98 0L238.48 0 238.48-29.5 242.98-29.5 242.98 0ZM250.48 0L248.98 0 248.98-29.5 250.48-29.5 250.48 0ZM253.48 0L251.98 0 251.98-29.5 253.48-29.5 253.48 0ZM238.68 15.95L238.68 4.35 245.78 4.35 245.78 5.5 239.88 5.5 239.88 9.3 244.78 9.3 244.78 10.5 239.88 10.5 239.88 14.8 245.73 14.8 245.73 15.95 238.68 15.95ZM259.48 0L254.98 0 254.98-29.5 259.48-29.5 259.48 0ZM262.48 0L260.98 0 260.98-29.5 262.48-29.5 262.48 0ZM265.48 0L263.98 0 263.98-29.5 265.48-29.5 265.48 0ZM271.48 0L266.98 0 266.98-29.5 271.48-29.5 271.48 0ZM278.98 0L277.48 0 277.48-29.5 278.98-29.5 278.98 0ZM264.13 15.95L264.13 4.35 267.53 4.35Q269.53 4.35 270.43 5.25L270.43 5.25Q271.38 6.1 271.38 7.7L271.38 7.7Q271.38 8.7 270.73 9.6L270.73 9.6Q270.08 10.5 269.03 10.8L269.03 10.8 271.73 15.95 270.28 15.95 267.68 10.85 265.43 10.85 265.43 15.95 264.13 15.95ZM265.43 9.7L267.68 9.7Q268.88 9.7 269.48 9.15L269.48 9.15Q270.03 8.65 270.03 7.7L270.03 7.7Q270.03 6.75 269.48 6.15L269.48 6.15Q268.88 5.6 267.68 5.6L267.68 5.6 265.43 5.6 265.43 9.7ZM281.97 0L280.47 0 280.47-29.5 281.97-29.5 281.97 0ZM292.47 0L287.97 0 287.97-29.5 292.47-29.5 292.47 0ZM295.47 0L293.97 0 293.97-29.5 295.47-29.5 295.47 0ZM301.47 0L296.97 0 296.97-29.5 301.47-29.5 301.47 0ZM304.47 0L302.97 0 302.97-29.5 304.47-29.5 304.47 0ZM310.47 0L305.97 0 305.97-29.5 310.47-29.5 310.47 0ZM313.47 0L311.97 0 311.97-29.5 313.47-29.5 313.47 0ZM316.47 0L314.97 0 314.97-29.5 316.47-29.5 316.47 0ZM323.97 0L322.47 0 322.47-29.5 323.97-29.5 323.97 0ZM329.97 0L325.47 0 325.47-29.5 329.97-29.5 329.97 0ZM321.72 15.95L320.57 12.55 316.82 12.55 315.67 15.95 314.37 15.95 318.62 4.15 318.77 4.15 323.07 15.95 321.72 15.95ZM317.17 11.55L320.22 11.55 318.72 7.15 317.17 11.55ZM332.97 0L331.47 0 331.47-29.5 332.97-29.5 332.97 0ZM338.97 0L334.47 0 334.47-29.5 338.97-29.5 338.97 0ZM341.97 0L340.47 0 340.47-29.5 341.97-29.5 341.97 0ZM344.97 0L343.47 0 343.47-29.5 344.97-29.5 344.97 0ZM355.47 0L350.97 0 350.97-29.5 355.47-29.5 355.47 0ZM340.82 15.95L340.82 4.35 342.32 4.35 342.32 4.5Q342.22 4.6 342.17 4.75L342.17 4.75Q342.17 4.85 342.17 5.2L342.17 5.2 342.17 14.85 347.72 14.85 347.72 15.95 340.82 15.95ZM358.47 0L356.97 0 356.97-29.5 358.47-29.5 358.47 0ZM364.47 0L359.97 0 359.97-29.5 364.47-29.5 364.47 0ZM370.47 0L365.97 0 365.97-29.5 370.47-29.5 370.47 0ZM373.47 0L371.97 0 371.97-29.5 373.47-29.5 373.47 0ZM380.97 0L379.47 0 379.47-29.5 380.97-29.5 380.97 0ZM366.17 15.95L366.17 4.35 369.87 4.35Q371.72 4.35 372.62 5.3L372.62 5.3Q373.57 6.2 373.57 7.65L373.57 7.65Q373.57 9.05 372.67 9.95L372.67 9.95Q371.77 10.85 369.97 10.85L369.97 10.85 367.52 10.85 367.52 15.95 366.17 15.95ZM367.52 9.7L369.82 9.7Q371.07 9.7 371.62 9.15L371.62 9.15Q372.22 8.65 372.22 7.7L372.22 7.7Q372.22 6.75 371.62 6.2L371.62 6.2Q371.02 5.6 369.87 5.6L369.87 5.6 367.52 5.6 367.52 9.7ZM386.96 0L382.46 0 382.46-29.5 386.96-29.5 386.96 0ZM389.96 0L388.46 0 388.46-29.5 389.96-29.5 389.96 0ZM392.96 0L391.46 0 391.46-29.5 392.96-29.5 392.96 0ZM403.46 0L398.96 0 398.96-29.5 403.46-29.5 403.46 0ZM406.46 0L404.96 0 404.96-29.5 406.46-29.5 406.46 0ZM391.51 15.95L391.51 4.35 393.01 4.35 393.01 4.5Q392.91 4.6 392.86 4.75L392.86 4.75Q392.86 4.85 392.86 5.2L392.86 5.2 392.86 9.3 397.36 9.3 397.36 4.35 398.91 4.35 398.91 4.5Q398.81 4.6 398.76 4.75L398.76 4.75Q398.76 4.85 398.76 5.2L398.76 5.2 398.76 15.95 397.36 15.95 397.36 10.45 392.86 10.45 392.86 15.95 391.51 15.95ZM412.46 0L407.96 0 407.96-29.5 412.46-29.5 412.46 0ZM415.46 0L413.96 0 413.96-29.5 415.46-29.5 415.46 0ZM421.46 0L416.96 0 416.96-29.5 421.46-29.5 421.46 0ZM424.46 0L422.96 0 422.96-29.5 424.46-29.5 424.46 0ZM431.96 0L430.46 0 430.46-29.5 431.96-29.5 431.96 0ZM420.71 16.15L420.71 16.15Q418.71 16.15 417.66 14.6L417.66 14.6Q416.56 13.05 416.56 10.2L416.56 10.2Q416.56 7.45 417.66 5.85L417.66 5.85Q418.76 4.3 420.71 4.3L420.71 4.3Q422.66 4.3 423.76 5.85L423.76 5.85Q424.86 7.45 424.86 10.2L424.86 10.2Q424.86 13.05 423.76 14.6L423.76 14.6Q422.71 16.15 420.71 16.15ZM420.71 15L420.71 15Q422.06 15 422.76 13.8L422.76 13.8Q423.51 12.55 423.51 10.2L423.51 10.2Q423.51 8 422.76 6.7L422.76 6.7Q422.01 5.45 420.71 5.45L420.71 5.45Q419.41 5.45 418.66 6.7L418.66 6.7Q417.91 8 417.91 10.2L417.91 10.2Q417.91 12.55 418.61 13.8L418.61 13.8Q419.36 15 420.71 15ZM434.96 0L433.46 0 433.46-29.5 434.96-29.5 434.96 0ZM437.96 0L436.46 0 436.46-29.5 437.96-29.5 437.96 0ZM443.96 0L439.46 0 439.46-29.5 443.96-29.5 443.96 0ZM446.96 0L445.46 0 445.46-29.5 446.96-29.5 446.96 0ZM457.46 0L452.96 0 452.96-29.5 457.46-29.5 457.46 0ZM442.51 15.95L442.51 4.35 443.76 4.35 448.61 12.95 448.61 4.35 450.06 4.35 450.06 4.5Q449.91 4.6 449.91 4.75L449.91 4.75Q449.86 4.85 449.86 5.2L449.86 5.2 449.86 15.95 448.86 15.95 443.71 6.85 443.71 15.95 442.51 15.95ZM460.46 0L458.96 0 458.96-29.5 460.46-29.5 460.46 0ZM466.46 0L461.96 0 461.96-29.5 466.46-29.5 466.46 0ZM469.46 0L467.96 0 467.96-29.5 469.46-29.5 469.46 0ZM475.46 0L470.96 0 470.96-29.5 475.46-29.5 475.46 0ZM482.96 0L481.46 0 481.46-29.5 482.96-29.5 482.96 0ZM471.66 16.15L471.66 16.15Q469.41 16.15 468.01 14.65L468.01 14.65 468.71 13.5 468.76 13.35 468.91 13.4Q468.91 13.45 468.96 13.6L468.96 13.6Q468.96 13.7 469.06 13.85L469.06 13.85Q469.11 13.95 469.26 14.05L469.26 14.05Q470.31 14.95 471.86 14.95L471.86 14.95Q472.86 14.95 473.56 14.4L473.56 14.4Q474.26 13.8 474.26 13L474.26 13Q474.26 12.45 474.01 12.05L474.01 12.05Q473.81 11.7 473.26 11.35L473.26 11.35Q472.71 11 471.56 10.5L471.56 10.5Q469.86 9.85 469.11 9L469.11 9Q468.41 8.15 468.41 7.1L468.41 7.1Q468.41 5.8 469.36 5L469.36 5Q470.31 4.2 471.91 4.2L471.91 4.2Q472.86 4.2 473.71 4.6L473.71 4.6Q474.51 5 475.16 5.65L475.16 5.65 474.31 6.8 474.21 6.7Q474.21 6.65 474.16 6.55L474.16 6.55Q474.16 6.4 474.06 6.3L474.06 6.3Q474.01 6.15 473.86 6.05L473.86 6.05Q473.46 5.65 472.91 5.45L472.91 5.45Q472.41 5.3 471.71 5.3L471.71 5.3Q470.81 5.3 470.31 5.8L470.31 5.8Q469.76 6.3 469.76 7L469.76 7Q469.76 7.55 469.96 7.95L469.96 7.95Q470.21 8.35 470.81 8.7L470.81 8.7Q471.41 9.1 472.61 9.55L472.61 9.55Q474.26 10.25 474.91 10.95L474.91 10.95Q475.51 11.7 475.51 12.8L475.51 12.8Q475.51 13.65 475.11 14.4L475.11 14.4Q474.66 15.15 473.81 15.65L473.81 15.65Q472.91 16.15 471.66 16.15ZM488.95 0L484.45 0 484.45-29.5 488.95-29.5 488.95 0ZM491.95 0L490.45 0 490.45-29.5 491.95-29.5 491.95 0ZM497.95 0L493.45 0 493.45-29.5 497.95-29.5 497.95 0ZM505.45 0L503.95 0 503.95-29.5 505.45-29.5 505.45 0ZM508.45 0L506.95 0 506.95-29.5 508.45-29.5 508.45 0ZM493.65 15.95L493.65 4.35 500.75 4.35 500.75 5.5 494.85 5.5 494.85 9.3 499.75 9.3 499.75 10.5 494.85 10.5 494.85 14.8 500.7 14.8 500.7 15.95 493.65 15.95Z" opacity="1" transform="matrix(1,0,0,1,0,0)" fill="#8dbdff" class="undefined-text-0" data-fill-palette-color="primary" id="text-0"></path></svg></g></svg></g></svg></g></svg></g><g></g></svg></g></svg></g></svg></g></svg></g></svg><rect width="395.52" height="247.2" fill="none" stroke="none" visibility="hidden"></rect></g></svg></g></svg>