<svg xmlns="http://www.w3.org/2000/svg" version="1.1" xmlns:xlink="http://www.w3.org/1999/xlink" xmlns:svgjs="http://svgjs.dev/svgjs" width="1000" height="1000" viewBox="0 0 1000 1000"><rect width="1000" height="1000" fill="#ffffff"></rect><g transform="matrix(0.7,0,0,0.7,149.5757575781035,282.1265587044535)"><svg viewBox="0 0 396 247" data-background-color="#0c1d36" preserveAspectRatio="xMidYMid meet" height="623" width="1000" xmlns="http://www.w3.org/2000/svg" xmlns:xlink="http://www.w3.org/1999/xlink"><defs></defs><g id="tight-bounds" transform="matrix(1,0,0,1,0.24000000132707555,-0.09999999999999432)"><svg viewBox="0 0 395.52 247.2" height="247.2" width="395.52"><g><svg></svg></g><g><svg viewBox="0 0 395.52 247.2" height="247.2" width="395.52"><g><path d="M142.716 94.759l-6.494 4.284c-3.969-5.863-9.125-10.508-15.469-13.935-6.344-3.397-13.229-5.096-20.656-5.097-12.027 0-22.309 4.254-30.848 12.763-4.51 4.51-7.825 9.519-9.945 15.027l-8.243 0c0.466-1.415 0.996-2.816 1.591-4.203 2.706-6.344 6.374-11.831 11.004-16.461 4.63-4.6 10.117-8.268 16.462-11.004 6.344-2.706 13.004-4.059 19.979-4.059 8.749 0 16.867 2.029 24.354 6.088 7.487 4.089 13.575 9.621 18.265 16.597zM69.249 154.426c8.539 8.509 18.822 12.763 30.848 12.763 7.426 0 14.312-1.714 20.656-5.142 6.344-3.458 11.5-8.118 15.469-13.98l6.359 4.6c-4.69 6.915-10.779 12.387-18.266 16.416-7.487 4.029-15.559 6.043-24.218 6.043-6.975 0-13.635-1.353-19.979-4.059-6.344-2.736-11.831-6.404-16.462-11.004-4.63-4.63-8.298-10.117-11.004-16.461-0.596-1.387-1.126-2.788-1.592-4.203h8.239c2.119 5.504 5.436 10.513 9.95 15.027zM155.795 85.739l-6.585 4.284c-5.442-7.938-12.478-14.236-21.106-18.896-8.629-4.66-17.965-6.99-28.007-6.991-10.794 0-20.746 2.661-29.856 7.983-9.08 5.322-16.281 12.538-21.603 21.648-2.614 4.475-4.586 9.153-5.916 14.034l-8.199 0c1.487-6.286 3.892-12.287 7.215-18.003 6.013-10.343 14.191-18.521 24.534-24.534 10.373-6.043 21.648-9.065 33.825-9.065 11.365 0 21.948 2.646 31.75 7.937 9.802 5.292 17.784 12.493 23.948 21.603zM48.638 153.433c5.322 9.11 12.523 16.326 21.603 21.648 9.11 5.322 19.062 7.983 29.856 7.983 10.042 0 19.408-2.345 28.097-7.036 8.659-4.72 15.695-11.079 21.107-19.077l6.494 4.51c-6.164 9.11-14.146 16.311-23.948 21.603-9.802 5.292-20.385 7.938-31.75 7.937-12.177 0-23.452-3.022-33.825-9.065-10.343-6.013-18.521-14.191-24.534-24.534-3.326-5.721-5.732-11.722-7.218-18.003h8.199c1.33 4.878 3.303 9.556 5.919 14.034zM169.009 76.899l-6.584 4.33c-6.915-10.132-15.86-18.16-26.835-24.083-10.974-5.893-22.805-8.84-35.493-8.84-10.193 0-19.949 1.969-29.27 5.908-9.321 3.969-17.348 9.321-24.083 16.056-6.705 6.705-12.042 14.717-16.01 24.038-1.872 4.397-3.303 8.895-4.292 13.493l-8.15 0c1.718-9.115 4.963-17.762 9.736-25.941 7.456-12.778 17.574-22.881 30.352-30.307 12.748-7.456 26.654-11.185 41.717-11.184 14.101 0 27.21 3.277 39.327 9.831 12.087 6.585 21.948 15.484 29.585 26.699zM30.734 152.892c3.969 9.321 9.306 17.333 16.01 24.038 6.735 6.735 14.763 12.087 24.083 16.056 9.321 3.939 19.077 5.908 29.27 5.908 12.778 0 24.639-2.962 35.583-8.885 10.914-5.953 19.829-13.996 26.745-24.128l6.359 4.735c-7.607 11.155-17.454 19.979-29.541 26.474-12.087 6.494-25.135 9.742-39.146 9.741-15.063 0-28.969-3.728-41.717-11.184-12.778-7.426-22.896-17.529-30.352-30.307-4.776-8.184-8.022-16.831-9.739-25.941h8.15c0.989 4.595 2.421 9.093 4.295 13.493zM181.998 67.88l-6.585 4.284c-8.358-12.237-19.167-21.918-32.426-29.044-13.259-7.126-27.556-10.689-42.89-10.689-12.327 0-24.128 2.405-35.403 7.216-11.275 4.811-20.986 11.29-29.135 19.438-8.148 8.148-14.627 17.859-19.437 29.134-2.7 6.35-4.637 12.877-5.812 19.582l-8.044 0c1.255-7.781 3.453-15.346 6.595-22.693 5.262-12.207 12.312-22.73 21.151-31.57 8.84-8.87 19.378-15.92 31.615-21.152 12.207-5.262 25.03-7.892 38.47-7.892 16.747 0 32.306 3.894 46.678 11.681 14.402 7.787 26.143 18.356 35.223 31.705zM16.122 158.981c4.811 11.275 11.29 20.986 19.437 29.134 8.148 8.148 17.859 14.627 29.135 19.438 11.275 4.811 23.076 7.216 35.403 7.216 15.334 0 29.645-3.593 42.935-10.779 13.289-7.216 24.113-16.942 32.471-29.179l6.405 4.825c-9.11 13.229-20.851 23.707-35.223 31.435-14.402 7.757-29.931 11.636-46.588 11.635-13.44 0-26.263-2.631-38.47-7.892-12.237-5.232-22.775-12.282-31.615-21.152-8.84-8.84-15.89-19.363-21.151-31.57-3.143-7.353-5.343-14.917-6.598-22.693l8.044 0c1.175 6.7 3.113 13.227 5.815 19.582zM309.404 161.236h-33.464l3.202-7.893h27.06zM315.808 177.111h-46.047l3.112-7.938h39.508zM321.942 192.986h-58.359l3.112-7.938h51.954zM267.01 43.12l-25.559 64.681-8.534 0 29.809-75.37h8.569l29.771 75.37-8.496 0zM199.181 214.769h-8.569l29.808-75.37h8.544zM343.319 214.769h-8.479l-29.784-75.37 8.491 0zM207.659 214.769l29.757-75.37 8.498 0-29.776 75.37zM268.003 61.926l4.51 10.148-14.115 35.727-8.507 0zM224.752 214.769l29.736-75.37 8.526 0-29.693 75.37zM276.797 82.853l4.194 10.914-5.529 14.034-8.508 0zM241.8 214.769l29.703-75.37 8.546 0-29.771 75.37zM285.185 104.681l1.18 3.12-2.409 0zM322.393 32.431l29.808 75.37-8.516 0-29.771-75.37zM394.507 214.769h-8.569l-29.772-75.37 8.532 0zM296.866 32.431h8.479l29.809 75.37h-8.479zM377.459 214.769h-8.479l-29.808-75.37 8.478 0zM279.774 32.431h8.478l29.809 75.37-8.516 0zM360.366 214.769h-8.568l-29.772-75.37 8.532 0z" fill="#f9cc0b" data-fill-palette-color="tertiary"></path></g><g transform="matrix(1,0,0,1,0,111.37036451712646)"><svg viewBox="0 0 395.52 24.45927096574707" height="24.45927096574707" width="395.52"><g><svg viewBox="0 0 395.52 24.45927096574707" height="24.45927096574707" width="395.52"><g><svg viewBox="0 0 395.52 24.45927096574707" height="24.45927096574707" width="395.52"><g><svg viewBox="0 0 395.52 24.45927096574707" height="24.45927096574707" width="395.52"><g><svg viewBox="0 0 395.52 24.45927096574707" height="24.45927096574707" width="395.52"><g><svg viewBox="0 0 395.52 24.45927096574707" height="24.45927096574707" width="395.52"><g transform="matrix(1,0,0,1,0,0)"><svg width="395.52" viewBox="1.3700000047683716 -42.189998626708984 710.5700073242188 43.94999694824219" height="24.45927096574707" data-palette-color="#f9cc0b"><path d="M32.79-26.61L32.79-26.61 31.35-25.66Q30.03-27.61 27.92-28.75 25.81-29.88 23.34-29.88L23.34-29.88Q19.34-29.88 16.5-27.05 13.67-24.22 13.67-20.21 13.67-16.21 16.5-13.38 19.34-10.55 23.34-10.55L23.34-10.55Q25.81-10.55 27.92-11.69 30.03-12.84 31.35-14.79L31.35-14.79 32.76-13.77Q31.2-11.47 28.71-10.13 26.22-8.79 23.34-8.79L23.34-8.79Q21.02-8.79 18.91-9.69 16.8-10.6 15.26-12.13 13.72-13.67 12.82-15.78 11.91-17.9 11.91-20.21 11.91-22.53 12.82-24.65 13.72-26.76 15.26-28.3 16.8-29.83 18.91-30.74 21.02-31.64 23.34-31.64L23.34-31.64Q26.25-31.64 28.74-30.29 31.23-28.93 32.79-26.61ZM35.69-28.61L35.69-28.61 34.23-27.66Q32.42-30.3 29.55-31.85 26.68-33.4 23.34-33.4L23.34-33.4Q19.75-33.4 16.72-31.63 13.7-29.86 11.93-26.83 10.16-23.8 10.16-20.21 10.16-16.63 11.93-13.6 13.7-10.57 16.72-8.8 19.75-7.03 23.34-7.03L23.34-7.03Q26.68-7.03 29.57-8.59 32.45-10.16 34.25-12.82L34.25-12.82 35.69-11.82Q33.64-8.79 30.38-7.03 27.12-5.27 23.34-5.27L23.34-5.27Q19.29-5.27 15.84-7.28 12.4-9.28 10.4-12.72 8.4-16.16 8.4-20.21 8.4-24.27 10.4-27.71 12.4-31.15 15.84-33.15 19.29-35.16 23.34-35.16L23.34-35.16Q27.12-35.16 30.38-33.4 33.64-31.64 35.69-28.61ZM38.62-30.57L38.62-30.57 37.16-29.61Q34.86-32.98 31.21-34.95 27.56-36.91 23.34-36.91L23.34-36.91Q19.95-36.91 16.85-35.6 13.75-34.28 11.51-32.04 9.28-29.81 7.96-26.71 6.64-23.61 6.64-20.21 6.64-16.82 7.96-13.72 9.28-10.62 11.51-8.39 13.75-6.15 16.85-4.83 19.95-3.52 23.34-3.52L23.34-3.52Q27.59-3.52 31.23-5.49 34.86-7.47 37.16-10.84L37.16-10.84 38.57-9.79Q36.04-6.08 32.02-3.92 28-1.76 23.34-1.76L23.34-1.76Q18.33-1.76 14.09-4.24 9.84-6.71 7.36-10.96 4.88-15.21 4.88-20.21 4.88-25.22 7.36-29.47 9.84-33.72 14.09-36.19 18.33-38.67 23.34-38.67L23.34-38.67Q28.03-38.67 32.06-36.49 36.08-34.3 38.62-30.57ZM41.5-32.57L41.5-32.57 40.04-31.62Q37.26-35.69 32.85-38.06 28.44-40.43 23.34-40.43L23.34-40.43Q19.24-40.43 15.49-38.83 11.74-37.23 9.03-34.52 6.32-31.81 4.72-28.06 3.13-24.32 3.13-20.21 3.13-16.11 4.72-12.37 6.32-8.62 9.03-5.91 11.74-3.2 15.49-1.6 19.24 0 23.34 0L23.34 0Q28.44 0 32.86-2.39 37.28-4.79 40.06-8.86L40.06-8.86 41.48-7.79Q38.45-3.39 33.67-0.82 28.88 1.76 23.34 1.76L23.34 1.76Q18.87 1.76 14.81 0.01 10.74-1.73 7.8-4.68 4.86-7.62 3.11-11.68 1.37-15.75 1.37-20.21 1.37-24.68 3.11-28.75 4.86-32.81 7.8-35.75 10.74-38.7 14.81-40.44 18.87-42.19 23.34-42.19L23.34-42.19Q28.91-42.19 33.69-39.6 38.48-37.01 41.5-32.57ZM80.05 0L80.05-35.16 81.81-35.16 81.81 0 80.05 0ZM44.87 0L44.87-35.16 46.63-35.16 46.63 0 44.87 0ZM76.54 0L76.54-35.16 78.29-35.16 78.29 0 76.54 0ZM73.02 0L73.02-35.16 74.78-35.16 74.78 0 73.02 0ZM69.5-22.85L69.5-35.16 71.26-35.16 71.26 0 69.5 0 69.5-14.06 57.18-14.06 57.18 0 55.42 0 55.42-35.16 57.18-35.16 57.18-22.85 69.5-22.85ZM51.9 0L51.9-35.16 53.66-35.16 53.66 0 51.9 0ZM48.39 0L48.39-35.16 50.14-35.16 50.14 0 48.39 0ZM57.18-15.82L69.5-15.82 69.5-17.58 57.18-17.58 57.18-15.82ZM57.18-19.34L69.5-19.34 69.5-21.09 57.18-21.09 57.18-19.34ZM99.68-15.04L99.68-16.8 110.27-16.8Q112.37-16.8 113.84-18.12 115.3-19.43 115.3-21.83L115.3-21.83Q115.3-23.58 113.78-24.98 112.25-26.37 110.27-26.37L110.27-26.37 95.19-26.37 95.19 0 93.43 0 93.43-28.13 110.27-28.13Q112.98-28.13 115.02-26.22 117.06-24.32 117.06-21.83L117.06-21.83Q117.06-18.73 115.08-16.88 113.11-15.04 110.27-15.04L110.27-15.04 99.68-15.04ZM99.68-11.52L99.68-13.28 110.27-13.28Q113.79-13.28 116.3-15.67 118.82-18.07 118.82-21.83L118.82-21.83Q118.82-25.02 116.25-27.45 113.69-29.88 110.27-29.88L110.27-29.88 91.67-29.88 91.67 0 89.91 0 89.91-31.64 110.27-31.64Q114.42-31.64 117.5-28.7 120.58-25.76 120.58-21.83L120.58-21.83Q120.58-17.43 117.54-14.48 114.5-11.52 110.27-11.52L110.27-11.52 99.68-11.52ZM99.68-8.01L99.68-9.77 110.27-9.77Q113.52-9.77 116.28-11.33 119.04-12.89 120.69-15.67 122.33-18.46 122.33-21.83L122.33-21.83Q122.33-24.88 120.7-27.55 119.06-30.22 116.27-31.81 113.47-33.4 110.27-33.4L110.27-33.4 88.15-33.4 88.15 0 86.4 0 86.4-35.16 110.27-35.16Q113.03-35.16 115.58-34.07 118.13-32.98 119.99-31.19 121.85-29.39 122.97-26.93 124.09-24.46 124.09-21.83L124.09-21.83Q124.09-17.55 122.14-14.37 120.19-11.18 116.89-9.52L116.89-9.52 120.58 0 118.7 0 115.2-8.81Q114.55-8.59 113.67-8.37L113.67-8.37 116.96 0 115.08 0 111.86-8.08Q111.1-8.01 110.27-8.01L110.27-8.01 113.37 0 111.52 0 108.44-8.01 106.86-8.01 109.81 0 107.95 0 104.98-8.01 99.68-8.01ZM98.7-22.85L98.7 0 96.94 0 96.94-24.61 110.27-24.61Q111.64-24.61 112.59-23.79 113.54-22.97 113.54-21.83L113.54-21.83Q113.54-18.55 110.27-18.55L110.27-18.55 99.68-18.55 99.68-20.31 110.27-20.31Q111.79-20.31 111.79-21.83L111.79-21.83Q111.79-22.24 111.34-22.55 110.88-22.85 110.27-22.85L110.27-22.85 98.7-22.85ZM138.52 0L138.52-35.16 140.28-35.16 140.28 0 138.52 0ZM135 0L135-35.16 136.76-35.16 136.76 0 135 0ZM131.49 0L131.49-35.16 133.24-35.16 133.24 0 131.49 0ZM127.97 0L127.97-35.16 129.73-35.16 129.73 0 127.97 0ZM161.03-16.72L161.03-16.72 158.24-16.72Q153.12-16.72 150.36-18.81 147.6-20.9 147.6-24.56L147.6-24.56Q147.6-27.98 150.84-30.26 154.09-32.54 159.95-32.54L159.95-32.54Q163.86-32.54 167.24-31.47 170.62-30.4 172.87-28.44L172.87-28.44 171.5-27.34Q169.5-28.98 166.47-29.88 163.44-30.79 159.95-30.79L159.95-30.79Q154.8-30.79 152.08-29.03 149.36-27.27 149.36-24.56L149.36-24.56Q149.36-21.63 151.59-20.06 153.82-18.48 158.24-18.48L158.24-18.48 160.93-18.48Q166.13-18.48 168.9-16.39 171.67-14.31 171.67-10.64L171.67-10.64Q171.67-7.23 168.42-4.94 165.18-2.66 159.32-2.66L159.32-2.66Q155.41-2.66 152.03-3.74 148.65-4.81 146.4-6.76L146.4-6.76 147.77-7.86Q149.77-6.23 152.8-5.32 155.82-4.42 159.32-4.42L159.32-4.42Q164.47-4.42 167.19-6.18 169.91-7.93 169.91-10.64L169.91-10.64Q169.91-13.57 167.68-15.15 165.44-16.72 161.03-16.72ZM161.03-13.21L161.03-13.21 158.24-13.21Q151.45-13.21 147.77-16.3 144.08-19.38 144.08-24.56L144.08-24.56Q144.08-26.93 145.13-29 146.18-31.08 148.15-32.65 150.11-34.23 153.16-35.14 156.22-36.06 159.95-36.06L159.95-36.06Q164.66-36.06 168.76-34.63 172.87-33.2 175.6-30.64L175.6-30.64 174.18-29.59Q171.69-31.84 167.96-33.07 164.22-34.3 159.95-34.3L159.95-34.3Q153.36-34.3 149.6-31.52 145.84-28.74 145.84-24.56L145.84-24.56Q145.84-20.14 149.06-17.55 152.28-14.97 158.24-14.97L158.24-14.97 160.93-14.97Q168.15-14.97 168.15-10.64L168.15-10.64Q168.15-8.69 165.94-7.43 163.74-6.18 159.32-6.18L159.32-6.18Q156.22-6.18 153.55-6.9 150.89-7.62 149.16-8.96L149.16-8.96 150.55-10.03Q153.6-7.93 159.32-7.93L159.32-7.93Q162.98-7.93 164.69-8.69 166.4-9.45 166.4-10.64L166.4-10.64Q166.4-12.04 165.2-12.62 164-13.21 161.03-13.21ZM161.03-20.24L161.03-20.24 158.24-20.24Q151.11-20.24 151.11-24.56L151.11-24.56Q151.11-26.51 153.32-27.77 155.53-29.03 159.95-29.03L159.95-29.03Q163.05-29.03 165.71-28.31 168.37-27.59 170.11-26.25L170.11-26.25 168.72-25.17Q165.66-27.27 159.95-27.27L159.95-27.27Q156.29-27.27 154.58-26.51 152.87-25.76 152.87-24.56L152.87-24.56Q152.87-23.17 154.07-22.58 155.26-22 158.24-22L158.24-22 161.03-22Q167.81-22 171.5-18.91 175.19-15.82 175.19-10.64L175.19-10.64Q175.19-8.28 174.14-6.2 173.09-4.13 171.12-2.55 169.16-0.98 166.1-0.06 163.05 0.85 159.32 0.85L159.32 0.85Q154.6 0.85 150.5-0.57 146.4-2 143.67-4.57L143.67-4.57 145.08-5.62Q147.57-3.37 151.31-2.14 155.04-0.9 159.32-0.9L159.32-0.9Q165.91-0.9 169.67-3.69 173.43-6.47 173.43-10.64L173.43-10.64Q173.43-15.06 170.2-17.65 166.98-20.24 161.03-20.24ZM185.24 0L185.24-25.42 187-25.42 187 0 185.24 0ZM204.58-33.4L178.21-33.4 178.21-35.16 204.58-35.16 204.58-33.4ZM204.58-29.88L178.21-29.88 178.21-31.64 204.58-31.64 204.58-29.88ZM204.58-26.37L178.21-26.37 178.21-28.13 204.58-28.13 204.58-26.37ZM195.79 0L195.79-25.42 197.55-25.42 197.55 0 195.79 0ZM192.27 0L192.27-25.42 194.03-25.42 194.03 0 192.27 0ZM188.76 0L188.76-25.42 190.51-25.42 190.51 0 188.76 0ZM221.87-22.55Q219.81-20.48 219.81-17.58 219.81-14.67 221.87-12.61 223.94-10.55 226.84-10.55 229.75-10.55 231.81-12.61 233.87-14.67 233.87-17.58 233.87-20.48 231.81-22.55 229.75-24.61 226.84-24.61 223.94-24.61 221.87-22.55ZM220.63-11.36Q218.05-13.94 218.05-17.58 218.05-21.22 220.63-23.79 223.2-26.37 226.84-26.37 230.48-26.37 233.05-23.79 235.63-21.22 235.63-17.58 235.63-13.94 233.05-11.36 230.48-8.79 226.84-8.79 223.2-8.79 220.63-11.36ZM219.38-25.02Q216.29-21.92 216.29-17.58 216.29-13.23 219.38-10.13 222.47-7.03 226.84-7.03 231.21-7.03 234.3-10.13 237.39-13.23 237.39-17.58 237.39-21.92 234.3-25.02 231.21-28.13 226.84-28.13 222.47-28.13 219.38-25.02ZM216.18-11.4Q214.54-14.23 214.54-17.58 214.54-20.92 216.18-23.75 217.83-26.59 220.66-28.23 223.5-29.88 226.84-29.88 230.19-29.88 233.02-28.23 235.85-26.59 237.5-23.75 239.15-20.92 239.15-17.58 239.15-14.23 237.5-11.4 235.85-8.57 233.02-6.92 230.19-5.27 226.84-5.27 223.5-5.27 220.66-6.92 217.83-8.57 216.18-11.4ZM213.89-23.03Q212.78-20.43 212.78-17.58 212.78-14.72 213.89-12.12 215-9.52 216.89-7.63 218.78-5.74 221.38-4.63 223.98-3.52 226.84-3.52 229.7-3.52 232.3-4.63 234.9-5.74 236.79-7.63 238.68-9.52 239.79-12.12 240.9-14.72 240.9-17.58 240.9-20.43 239.79-23.03 238.68-25.63 236.79-27.53 234.9-29.42 232.3-30.53 229.7-31.64 226.84-31.64 223.98-31.64 221.38-30.53 218.78-29.42 216.89-27.53 215-25.63 213.89-23.03ZM212.28-11.43Q211.02-14.36 211.02-17.58 211.02-20.8 212.28-23.73 213.53-26.66 215.65-28.77 217.76-30.88 220.69-32.14 223.62-33.4 226.84-33.4 230.06-33.4 232.99-32.14 235.92-30.88 238.03-28.77 240.15-26.66 241.4-23.73 242.66-20.8 242.66-17.58 242.66-14.36 241.4-11.43 240.15-8.5 238.03-6.38 235.92-4.27 232.99-3.02 230.06-1.76 226.84-1.76 223.62-1.76 220.69-3.02 217.76-4.27 215.65-6.38 213.53-8.5 212.28-11.43ZM210.65-24.4Q209.26-21.14 209.26-17.58 209.26-14.01 210.65-10.75 212.05-7.5 214.4-5.14 216.76-2.78 220.02-1.39 223.28 0 226.84 0 230.4 0 233.66-1.39 236.92-2.78 239.28-5.14 241.64-7.5 243.03-10.75 244.42-14.01 244.42-17.58 244.42-21.14 243.03-24.4 241.64-27.66 239.28-30.02 236.92-32.37 233.66-33.76 230.4-35.16 226.84-35.16 223.28-35.16 220.02-33.76 216.76-32.37 214.4-30.02 212.05-27.66 210.65-24.4ZM209.04-10.07Q207.5-13.65 207.5-17.58 207.5-21.51 209.04-25.09 210.58-28.66 213.17-31.25 215.76-33.84 219.33-35.38 222.91-36.91 226.84-36.91 230.77-36.91 234.35-35.38 237.92-33.84 240.51-31.25 243.1-28.66 244.64-25.09 246.18-21.51 246.18-17.58 246.18-13.65 244.64-10.07 243.1-6.49 240.51-3.91 237.92-1.32 234.35 0.22 230.77 1.76 226.84 1.76 222.91 1.76 219.33 0.22 215.76-1.32 213.17-3.91 210.58-6.49 209.04-10.07ZM263.75-14.79L263.75-16.55 271.2-16.55Q273.4-16.55 274.93-17.87 276.47-19.19 276.47-21.58L276.47-21.58Q276.47-23.44 274.86-24.9 273.25-26.37 271.2-26.37L271.2-26.37 258.89-26.37 258.89 0 257.14 0 257.14-28.13 271.2-28.13Q274.01-28.13 276.12-26.15 278.23-24.17 278.23-21.58L278.23-21.58Q278.23-18.48 276.18-16.64 274.13-14.79 271.2-14.79L271.2-14.79 263.75-14.79ZM263.75-11.28L263.75-13.04 271.2-13.04Q274.81-13.04 277.4-15.43 279.99-17.82 279.99-21.58L279.99-21.58Q279.99-24.88 277.35-27.38 274.71-29.88 271.2-29.88L271.2-29.88 255.38-29.88 255.38 0 253.62 0 253.62-31.64 271.2-31.64Q275.45-31.64 278.6-28.63 281.75-25.61 281.75-21.58L281.75-21.58Q281.75-17.19 278.63-14.23 275.52-11.28 271.2-11.28L271.2-11.28 263.75-11.28ZM263.75-7.76L263.75-9.52 271.2-9.52Q274.49-9.52 277.31-11.08 280.13-12.65 281.82-15.43 283.5-18.21 283.5-21.58L283.5-21.58Q283.5-24.68 281.83-27.42 280.16-30.15 277.31-31.77 274.47-33.4 271.2-33.4L271.2-33.4 251.86-33.4 251.86 0 250.1 0 250.1-35.16 271.2-35.16Q273.98-35.16 276.58-34.06 279.18-32.96 281.09-31.12 282.99-29.27 284.13-26.77 285.26-24.27 285.26-21.58L285.26-21.58Q285.26-18.43 284.14-15.8 283.01-13.16 281.09-11.41 279.16-9.67 276.61-8.72 274.05-7.76 271.2-7.76L271.2-7.76 263.75-7.76ZM262.41-22.85L262.41 0 260.65 0 260.65-24.61 271.2-24.61Q272.64-24.61 273.68-23.72 274.71-22.83 274.71-21.58L274.71-21.58Q274.71-18.31 271.2-18.31L271.2-18.31 263.75-18.31 263.75-20.07 271.2-20.07Q272.96-20.07 272.96-21.58L272.96-21.58Q272.96-22.12 272.44-22.49 271.93-22.85 271.2-22.85L271.2-22.85 262.41-22.85ZM324.37 0L324.37-35.16 326.13-35.16 326.13 0 324.37 0ZM289.19 0L289.19-35.16 290.95-35.16 290.95 0 289.19 0ZM320.85 0L320.85-35.16 322.61-35.16 322.61 0 320.85 0ZM317.34 0L317.34-35.16 319.1-35.16 319.1 0 317.34 0ZM313.82-22.85L313.82-35.16 315.58-35.16 315.58 0 313.82 0 313.82-14.06 301.49-14.06 301.49 0 299.74 0 299.74-35.16 301.49-35.16 301.49-22.85 313.82-22.85ZM296.22 0L296.22-35.16 297.98-35.16 297.98 0 296.22 0ZM292.7 0L292.7-35.16 294.46-35.16 294.46 0 292.7 0ZM301.49-15.82L313.82-15.82 313.82-17.58 301.49-17.58 301.49-15.82ZM301.49-19.34L313.82-19.34 313.82-21.09 301.49-21.09 301.49-19.34ZM339.5-35.16L339.5 0 337.75 0 337.75-35.16 339.5-35.16ZM335.99-35.16L335.99 0 334.23 0 334.23-35.16 335.99-35.16ZM332.47-35.16L332.47 0 330.71 0 330.71-35.16 332.47-35.16ZM343.02-13.21L343.02-8.79 359.84-8.79 359.84-7.03 343.02-7.03 343.02-5.27 359.84-5.27 359.84-3.52 343.02-3.52 343.02-1.76 359.84-1.76 359.84 0 341.26 0 341.26-35.16 359.84-35.16 359.84-33.4 343.02-33.4 343.02-31.64 359.84-31.64 359.84-29.88 343.02-29.88 343.02-28.13 359.84-28.13 359.84-26.37 343.02-26.37 343.02-22 358.86-22 358.86-20.24 343.02-20.24 343.02-18.48 358.86-18.48 358.86-16.72 343.02-16.72 343.02-14.97 358.86-14.97 358.86-13.21 343.02-13.21ZM377.34-15.04L377.34-16.8 387.94-16.8Q390.04-16.8 391.5-18.12 392.97-19.43 392.97-21.83L392.97-21.83Q392.97-23.58 391.44-24.98 389.92-26.37 387.94-26.37L387.94-26.37 372.85-26.37 372.85 0 371.09 0 371.09-28.13 387.94-28.13Q390.65-28.13 392.69-26.22 394.73-24.32 394.73-21.83L394.73-21.83Q394.73-18.73 392.75-16.88 390.77-15.04 387.94-15.04L387.94-15.04 377.34-15.04ZM377.34-11.52L377.34-13.28 387.94-13.28Q391.45-13.28 393.97-15.67 396.48-18.07 396.48-21.83L396.48-21.83Q396.48-25.02 393.92-27.45 391.36-29.88 387.94-29.88L387.94-29.88 369.34-29.88 369.34 0 367.58 0 367.58-31.64 387.94-31.64Q392.09-31.64 395.17-28.7 398.24-25.76 398.24-21.83L398.24-21.83Q398.24-17.43 395.2-14.48 392.16-11.52 387.94-11.52L387.94-11.52 377.34-11.52ZM377.34-8.01L377.34-9.77 387.94-9.77Q391.19-9.77 393.94-11.33 396.7-12.89 398.35-15.67 400-18.46 400-21.83L400-21.83Q400-24.88 398.36-27.55 396.73-30.22 393.93-31.81 391.14-33.4 387.94-33.4L387.94-33.4 365.82-33.4 365.82 0 364.06 0 364.06-35.16 387.94-35.16Q390.7-35.16 393.25-34.07 395.8-32.98 397.66-31.19 399.51-29.39 400.63-26.93 401.76-24.46 401.76-21.83L401.76-21.83Q401.76-17.55 399.8-14.37 397.85-11.18 394.56-9.52L394.56-9.52 398.24 0 396.36 0 392.87-8.81Q392.21-8.59 391.33-8.37L391.33-8.37 394.63 0 392.75 0 389.53-8.08Q388.77-8.01 387.94-8.01L387.94-8.01 391.04 0 389.18 0 386.11-8.01 384.52-8.01 387.48 0 385.62 0 382.64-8.01 377.34-8.01ZM376.37-22.85L376.37 0 374.61 0 374.61-24.61 387.94-24.61Q389.31-24.61 390.26-23.79 391.21-22.97 391.21-21.83L391.21-21.83Q391.21-18.55 387.94-18.55L387.94-18.55 377.34-18.55 377.34-20.31 387.94-20.31Q389.45-20.31 389.45-21.83L389.45-21.83Q389.45-22.24 389-22.55 388.55-22.85 387.94-22.85L387.94-22.85 376.37-22.85ZM435.93-11.87L428.51-11.87 429.22-13.62 435.22-13.62 435.93-11.87ZM437.35-8.35L427.14-8.35 427.83-10.11 436.59-10.11 437.35-8.35ZM438.72-4.83L425.78-4.83 426.46-6.59 437.98-6.59 438.72-4.83ZM426.53-38.06L411.49 0 409.59 0 425.58-40.43 427.48-40.43 443.45 0 441.57 0 426.53-38.06ZM413.37 0L426.75-33.89 427.75-31.64 415.25 0 413.37 0ZM417.16 0L428.71-29.25 429.63-26.83 419.06 0 417.16 0ZM420.94 0L430.56-24.41 431.49-21.95 422.82 0 420.94 0ZM438.81-40.43L454.8 0 452.9 0 436.93-40.43 438.81-40.43ZM433.15-40.43L435.03-40.43 451.02 0 449.14 0 433.15-40.43ZM429.36-40.43L431.24-40.43 447.24 0 445.33 0 429.36-40.43ZM457.88 0L457.88-35.16 459.64-35.16 459.64 0 457.88 0ZM468.42 0L468.42-35.16 470.18-35.16 470.18-8.79 483.15-8.79 483.15-7.03 470.18-7.03 470.18-5.27 483.15-5.27 483.15-3.52 470.18-3.52 470.18-1.76 483.15-1.76 483.15 0 468.42 0ZM464.91 0L464.91-35.16 466.67-35.16 466.67 0 464.91 0ZM461.39 0L461.39-35.16 463.15-35.16 463.15 0 461.39 0ZM500.67-14.79L500.67-16.55 508.12-16.55Q510.32-16.55 511.85-17.87 513.39-19.19 513.39-21.58L513.39-21.58Q513.39-23.44 511.78-24.9 510.17-26.37 508.12-26.37L508.12-26.37 495.81-26.37 495.81 0 494.06 0 494.06-28.13 508.12-28.13Q510.93-28.13 513.04-26.15 515.15-24.17 515.15-21.58L515.15-21.58Q515.15-18.48 513.1-16.64 511.05-14.79 508.12-14.79L508.12-14.79 500.67-14.79ZM500.67-11.28L500.67-13.04 508.12-13.04Q511.73-13.04 514.32-15.43 516.91-17.82 516.91-21.58L516.91-21.58Q516.91-24.88 514.27-27.38 511.63-29.88 508.12-29.88L508.12-29.88 492.3-29.88 492.3 0 490.54 0 490.54-31.64 508.12-31.64Q512.37-31.64 515.52-28.63 518.67-25.61 518.67-21.58L518.67-21.58Q518.67-17.19 515.55-14.23 512.44-11.28 508.12-11.28L508.12-11.28 500.67-11.28ZM500.67-7.76L500.67-9.52 508.12-9.52Q511.42-9.52 514.24-11.08 517.05-12.65 518.74-15.43 520.42-18.21 520.42-21.58L520.42-21.58Q520.42-24.68 518.75-27.42 517.08-30.15 514.24-31.77 511.39-33.4 508.12-33.4L508.12-33.4 488.78-33.4 488.78 0 487.03 0 487.03-35.16 508.12-35.16Q510.9-35.16 513.5-34.06 516.1-32.96 518.01-31.12 519.91-29.27 521.05-26.77 522.18-24.27 522.18-21.58L522.18-21.58Q522.18-18.43 521.06-15.8 519.94-13.16 518.01-11.41 516.08-9.67 513.53-8.72 510.98-7.76 508.12-7.76L508.12-7.76 500.67-7.76ZM499.33-22.85L499.33 0 497.57 0 497.57-24.61 508.12-24.61Q509.56-24.61 510.6-23.72 511.63-22.83 511.63-21.58L511.63-21.58Q511.63-18.31 508.12-18.31L508.12-18.31 500.67-18.31 500.67-20.07 508.12-20.07Q509.88-20.07 509.88-21.58L509.88-21.58Q509.88-22.12 509.36-22.49 508.85-22.85 508.12-22.85L508.12-22.85 499.33-22.85ZM561.29 0L561.29-35.16 563.05-35.16 563.05 0 561.29 0ZM526.11 0L526.11-35.16 527.87-35.16 527.87 0 526.11 0ZM557.77 0L557.77-35.16 559.53-35.16 559.53 0 557.77 0ZM554.26 0L554.26-35.16 556.02-35.16 556.02 0 554.26 0ZM550.74-22.85L550.74-35.16 552.5-35.16 552.5 0 550.74 0 550.74-14.06 538.41-14.06 538.41 0 536.66 0 536.66-35.16 538.41-35.16 538.41-22.85 550.74-22.85ZM533.14 0L533.14-35.16 534.9-35.16 534.9 0 533.14 0ZM529.63 0L529.63-35.16 531.38-35.16 531.38 0 529.63 0ZM538.41-15.82L550.74-15.82 550.74-17.58 538.41-17.58 538.41-15.82ZM538.41-19.34L550.74-19.34 550.74-21.09 538.41-21.09 538.41-19.34ZM581.08-22.55Q579.01-20.48 579.01-17.58 579.01-14.67 581.08-12.61 583.14-10.55 586.04-10.55 588.95-10.55 591.01-12.61 593.08-14.67 593.08-17.58 593.08-20.48 591.01-22.55 588.95-24.61 586.04-24.61 583.14-24.61 581.08-22.55ZM579.83-11.36Q577.25-13.94 577.25-17.58 577.25-21.22 579.83-23.79 582.41-26.37 586.04-26.37 589.68-26.37 592.26-23.79 594.83-21.22 594.83-17.58 594.83-13.94 592.26-11.36 589.68-8.79 586.04-8.79 582.41-8.79 579.83-11.36ZM578.59-25.02Q575.5-21.92 575.5-17.58 575.5-13.23 578.59-10.13 581.67-7.03 586.04-7.03 590.41-7.03 593.5-10.13 596.59-13.23 596.59-17.58 596.59-21.92 593.5-25.02 590.41-28.13 586.04-28.13 581.67-28.13 578.59-25.02ZM575.39-11.4Q573.74-14.23 573.74-17.58 573.74-20.92 575.39-23.75 577.04-26.59 579.87-28.23 582.7-29.88 586.04-29.88 589.39-29.88 592.22-28.23 595.05-26.59 596.7-23.75 598.35-20.92 598.35-17.58 598.35-14.23 596.7-11.4 595.05-8.57 592.22-6.92 589.39-5.27 586.04-5.27 582.7-5.27 579.87-6.92 577.04-8.57 575.39-11.4ZM573.09-23.03Q571.98-20.43 571.98-17.58 571.98-14.72 573.09-12.12 574.2-9.52 576.1-7.63 577.99-5.74 580.59-4.63 583.19-3.52 586.04-3.52 588.9-3.52 591.5-4.63 594.1-5.74 595.99-7.63 597.88-9.52 599-12.12 600.11-14.72 600.11-17.58 600.11-20.43 599-23.03 597.88-25.63 595.99-27.53 594.1-29.42 591.5-30.53 588.9-31.64 586.04-31.64 583.19-31.64 580.59-30.53 577.99-29.42 576.1-27.53 574.2-25.63 573.09-23.03ZM571.48-11.43Q570.22-14.36 570.22-17.58 570.22-20.8 571.48-23.73 572.74-26.66 574.85-28.77 576.96-30.88 579.89-32.14 582.82-33.4 586.04-33.4 589.27-33.4 592.2-32.14 595.13-30.88 597.24-28.77 599.35-26.66 600.61-23.73 601.86-20.8 601.86-17.58 601.86-14.36 600.61-11.43 599.35-8.5 597.24-6.38 595.13-4.27 592.2-3.02 589.27-1.76 586.04-1.76 582.82-1.76 579.89-3.02 576.96-4.27 574.85-6.38 572.74-8.5 571.48-11.43ZM569.86-24.4Q568.47-21.14 568.47-17.58 568.47-14.01 569.86-10.75 571.25-7.5 573.61-5.14 575.96-2.78 579.22-1.39 582.48 0 586.04 0 589.61 0 592.87-1.39 596.13-2.78 598.48-5.14 600.84-7.5 602.23-10.75 603.62-14.01 603.62-17.58 603.62-21.14 602.23-24.4 600.84-27.66 598.48-30.02 596.13-32.37 592.87-33.76 589.61-35.16 586.04-35.16 582.48-35.16 579.22-33.76 575.96-32.37 573.61-30.02 571.25-27.66 569.86-24.4ZM568.25-10.07Q566.71-13.65 566.71-17.58 566.71-21.51 568.25-25.09 569.78-28.66 572.37-31.25 574.96-33.84 578.54-35.38 582.11-36.91 586.04-36.91 589.97-36.91 593.55-35.38 597.13-33.84 599.72-31.25 602.3-28.66 603.84-25.09 605.38-21.51 605.38-17.58 605.38-13.65 603.84-10.07 602.3-6.49 599.72-3.91 597.13-1.32 593.55 0.22 589.97 1.76 586.04 1.76 582.11 1.76 578.54 0.22 574.96-1.32 572.37-3.91 569.78-6.49 568.25-10.07ZM637.04-35.16L637.04-14.18 635.28-17.38 635.28-35.16 637.04-35.16ZM640.56-35.16L640.56-8.11 638.8-11.08 638.8-35.16 640.56-35.16ZM616.34 0L616.34-20.97 618.1-17.77 618.1 0 616.34 0ZM612.82 0L612.82-27.29 614.58-24.07 614.58 0 612.82 0ZM633.8 0L613.43-35.16 615.48-35.16 635.85 0 633.8 0ZM637.9 0L617.58-35.16 619.66-35.16 640 0 637.9 0ZM642 0L621.71-35.16 623.76-35.16 642.32-3.05 642.32-35.16 644.07-35.16 644.07 0 642 0ZM629.67 0L611.07-32.13 611.07 0 609.31 0 609.31-35.16 611.41-35.16 631.7 0 629.67 0ZM664.82-16.72L664.82-16.72 662.04-16.72Q656.91-16.72 654.15-18.81 651.4-20.9 651.4-24.56L651.4-24.56Q651.4-27.98 654.64-30.26 657.89-32.54 663.75-32.54L663.75-32.54Q667.66-32.54 671.04-31.47 674.42-30.4 676.66-28.44L676.66-28.44 675.3-27.34Q673.29-28.98 670.27-29.88 667.24-30.79 663.75-30.79L663.75-30.79Q658.6-30.79 655.88-29.03 653.15-27.27 653.15-24.56L653.15-24.56Q653.15-21.63 655.39-20.06 657.62-18.48 662.04-18.48L662.04-18.48 664.73-18.48Q669.93-18.48 672.7-16.39 675.47-14.31 675.47-10.64L675.47-10.64Q675.47-7.23 672.22-4.94 668.97-2.66 663.11-2.66L663.11-2.66Q659.21-2.66 655.83-3.74 652.45-4.81 650.2-6.76L650.2-6.76 651.57-7.86Q653.57-6.23 656.6-5.32 659.62-4.42 663.11-4.42L663.11-4.42Q668.27-4.42 670.99-6.18 673.71-7.93 673.71-10.64L673.71-10.64Q673.71-13.57 671.48-15.15 669.24-16.72 664.82-16.72ZM664.82-13.21L664.82-13.21 662.04-13.21Q655.25-13.21 651.57-16.3 647.88-19.38 647.88-24.56L647.88-24.56Q647.88-26.93 648.93-29 649.98-31.08 651.94-32.65 653.91-34.23 656.96-35.14 660.01-36.06 663.75-36.06L663.75-36.06Q668.46-36.06 672.56-34.63 676.66-33.2 679.4-30.64L679.4-30.64 677.98-29.59Q675.49-31.84 671.76-33.07 668.02-34.3 663.75-34.3L663.75-34.3Q657.16-34.3 653.4-31.52 649.64-28.74 649.64-24.56L649.64-24.56Q649.64-20.14 652.86-17.55 656.08-14.97 662.04-14.97L662.04-14.97 664.73-14.97Q671.95-14.97 671.95-10.64L671.95-10.64Q671.95-8.69 669.74-7.43 667.53-6.18 663.11-6.18L663.11-6.18Q660.01-6.18 657.35-6.9 654.69-7.62 652.96-8.96L652.96-8.96 654.35-10.03Q657.4-7.93 663.11-7.93L663.11-7.93Q666.78-7.93 668.49-8.69 670.19-9.45 670.19-10.64L670.19-10.64Q670.19-12.04 669-12.62 667.8-13.21 664.82-13.21ZM664.82-20.24L664.82-20.24 662.04-20.24Q654.91-20.24 654.91-24.56L654.91-24.56Q654.91-26.51 657.12-27.77 659.33-29.03 663.75-29.03L663.75-29.03Q666.85-29.03 669.51-28.31 672.17-27.59 673.91-26.25L673.91-26.25 672.51-25.17Q669.46-27.27 663.75-27.27L663.75-27.27Q660.09-27.27 658.38-26.51 656.67-25.76 656.67-24.56L656.67-24.56Q656.67-23.17 657.87-22.58 659.06-22 662.04-22L662.04-22 664.82-22Q671.61-22 675.3-18.91 678.98-15.82 678.98-10.64L678.98-10.64Q678.98-8.28 677.93-6.2 676.88-4.13 674.92-2.55 672.95-0.98 669.9-0.06 666.85 0.85 663.11 0.85L663.11 0.85Q658.4 0.85 654.3-0.57 650.2-2 647.46-4.57L647.46-4.57 648.88-5.62Q651.37-3.37 655.11-2.14 658.84-0.9 663.11-0.9L663.11-0.9Q669.71-0.9 673.47-3.69 677.23-6.47 677.23-10.64L677.23-10.64Q677.23-15.06 674-17.65 670.78-20.24 664.82-20.24ZM691.6-35.16L691.6 0 689.85 0 689.85-35.16 691.6-35.16ZM688.09-35.16L688.09 0 686.33 0 686.33-35.16 688.09-35.16ZM684.57-35.16L684.57 0 682.81 0 682.81-35.16 684.57-35.16ZM695.12-13.21L695.12-8.79 711.94-8.79 711.94-7.03 695.12-7.03 695.12-5.27 711.94-5.27 711.94-3.52 695.12-3.52 695.12-1.76 711.94-1.76 711.94 0 693.36 0 693.36-35.16 711.94-35.16 711.94-33.4 695.12-33.4 695.12-31.64 711.94-31.64 711.94-29.88 695.12-29.88 695.12-28.13 711.94-28.13 711.94-26.37 695.12-26.37 695.12-22 710.96-22 710.96-20.24 695.12-20.24 695.12-18.48 710.96-18.48 710.96-16.72 695.12-16.72 695.12-14.97 710.96-14.97 710.96-13.21 695.12-13.21Z" opacity="1" transform="matrix(1,0,0,1,0,0)" fill="#000000" class="undefined-text-0" data-fill-palette-color="primary" id="text-0"></path></svg></g></svg></g></svg></g></svg></g></svg></g></svg></g></svg></g></svg></g></svg><rect width="395.52" height="247.2" fill="none" stroke="none" visibility="hidden"></rect></g></svg></g></svg>