<svg xmlns="http://www.w3.org/2000/svg" version="1.1" xmlns:xlink="http://www.w3.org/1999/xlink" xmlns:svgjs="http://svgjs.dev/svgjs" width="1000" height="623" viewBox="0 0 1000 623"><g transform="matrix(1,0,0,1,-0.6060606060606233,0.2522267206477409)"><svg viewBox="0 0 396 247" data-background-color="#282634" preserveAspectRatio="xMidYMid meet" height="623" width="1000" xmlns="http://www.w3.org/2000/svg" xmlns:xlink="http://www.w3.org/1999/xlink"><g id="tight-bounds" transform="matrix(1,0,0,1,0.2400000000000091,-0.09999999999999432)"><svg viewBox="0 0 395.52 247.2" height="247.2" width="395.52"><g><svg></svg></g><g><svg viewBox="0 0 395.52 247.2" height="247.2" width="395.52"><g transform="matrix(1,0,0,1,87.63857999999999,47.215199999999996)"><svg viewBox="0 0 220.24284 152.7696" height="152.7696" width="220.24284"><g><svg viewBox="0 0 220.24284 152.7696" height="152.7696" width="220.24284"><g><svg viewBox="0 0 220.24284 152.7696" height="152.7696" width="220.24284"><g><svg viewBox="0 0 220.24284 152.7696" height="152.7696" width="220.24284"><g><svg viewBox="0 0 220.24284 152.7696" height="152.7696" width="220.24284"><g><svg viewBox="0 0 220.24284 152.7696" height="152.7696" width="220.24284"><g transform="matrix(1,0,0,1,0,0)"><svg width="220.24284" viewBox="3.85 -35.5 51.9 36" height="152.7696" data-palette-color="#ff4057"><path d="M25.3-7.05L26.65-6.4Q25.3-3.1 22.85-1.3 20.4 0.5 15.5 0.5L15.5 0.5Q9.35 0.5 6.6-3.28 3.85-7.05 3.85-15.05L3.85-15.05 3.85-19.95Q3.85-27.95 6.6-31.73 9.35-35.5 15.5-35.5L15.5-35.5Q20.4-35.5 22.85-33.7 25.3-31.9 26.65-28.6L26.65-28.6 25.3-27.95Q24.15-30.85 22.05-32.43 19.95-34 15.5-34L15.5-34Q13.05-34 11.3-33.38 9.55-32.75 8.15-31.25 6.75-29.75 6.05-26.93 5.35-24.1 5.35-19.95L5.35-19.95 5.35-15.05Q5.35-10.9 6.05-8.08 6.75-5.25 8.15-3.75 9.55-2.25 11.3-1.63 13.05-1 15.5-1L15.5-1Q19.95-1 22.05-2.58 24.15-4.15 25.3-7.05L25.3-7.05ZM35.2 0L35.2-1.5 53.6-1.5 43-30.65 31.85 0 30.25 0 43-35.05 55.75 0 35.2 0Z" opacity="1" transform="matrix(1,0,0,1,0,0)" fill="#ff4057" class="undefined-text-0" data-fill-palette-color="primary" id="text-0"></path></svg></g></svg></g></svg></g></svg></g></svg></g></svg></g></svg></g><path d="M269.94 41.215L269.94 0 22.74 0 22.74 247.2 269.94 247.2 269.94 205.985 256.163 205.985 256.163 233.423 36.517 233.423 36.517 13.777 256.163 13.777 256.163 41.215Z" fill="#ff4057" stroke="transparent" data-fill-palette-color="primary"></path></svg></g><defs></defs></svg><rect width="395.52" height="247.2" fill="none" stroke="none" visibility="hidden"></rect></g></svg></g></svg>